M48
; DRILL file {KiCad 9.0.2} date 2025-06-24T13:56:54-0700
; FORMAT={-:-/ absolute / metric / decimal}
; #@! TF.CreationDate,2025-06-24T13:56:54-07:00
; #@! TF.GenerationSoftware,Kicad,Pcbnew,9.0.2
; #@! TF.FileFunction,Plated,1,2,PTH
FMAT,2
METRIC
; #@! TA.AperFunction,Plated,PTH,ComponentDrill
T1C0.800
; #@! TA.AperFunction,Plated,PTH,ComponentDrill
T2C0.889
; #@! TA.AperFunction,Plated,PTH,ComponentDrill
T3C1.000
; #@! TA.AperFunction,Plated,PTH,ComponentDrill
T4C1.500
; #@! TA.AperFunction,Plated,PTH,ComponentDrill
T5C2.600
%
G90
G05
T1
X112.385Y-79.48
X112.385Y-82.02
X112.385Y-118.374
X112.385Y-120.914
X112.4Y-100.174
X112.4Y-102.714
X131.735Y-116.714
X131.735Y-119.254
X132.0Y-79.774
X132.0Y-82.314
X132.2Y-99.174
X132.2Y-101.714
X151.135Y-79.54
X151.135Y-82.08
X151.135Y-116.714
X151.135Y-119.254
X151.185Y-97.454
X151.185Y-99.994
T2
X157.58Y-72.948
X157.58Y-75.489
X157.58Y-78.028
X157.58Y-80.569
X157.58Y-83.108
X157.58Y-85.648
X157.58Y-88.188
X172.82Y-72.948
X172.82Y-75.489
X172.82Y-78.028
X172.82Y-80.569
X172.82Y-83.108
X172.82Y-85.648
X172.82Y-88.188
T3
X158.1Y-116.8
X158.1Y-119.3
X158.1Y-121.8
X172.6Y-116.8
X172.6Y-121.8
T4
X99.05Y-76.94
X99.05Y-96.34
X99.05Y-115.54
X105.4Y-74.4
X105.4Y-93.8
X105.4Y-113.0
X118.4Y-115.6
X118.45Y-76.94
X118.45Y-96.34
X124.75Y-113.06
X124.8Y-74.4
X124.8Y-93.8
X137.8Y-77.0
X137.8Y-115.6
X137.85Y-96.34
X144.15Y-74.46
X144.15Y-113.06
X144.2Y-93.8
T5
X165.6Y-113.7
X165.6Y-124.9
M30
