%TF.GenerationSoftware,KiCad,Pcbnew,9.0.2*%
%TF.CreationDate,2025-06-24T13:56:58-07:00*%
%TF.ProjectId,meghanaHackpad,6d656768-616e-4614-9861-636b7061642e,rev?*%
%TF.SameCoordinates,Original*%
%TF.FileFunction,Legend,Top*%
%TF.FilePolarity,Positive*%
%FSLAX46Y46*%
G04 Gerber Fmt 4.6, Leading zero omitted, Abs format (unit mm)*
G04 Created by KiCad (PCBNEW 9.0.2) date 2025-06-24 13:56:58*
%MOMM*%
%LPD*%
G01*
G04 APERTURE LIST*
%ADD10C,0.150000*%
%ADD11C,0.101600*%
%ADD12C,0.120000*%
%ADD13C,0.127000*%
%ADD14C,0.100000*%
%ADD15C,0.504000*%
G04 APERTURE END LIST*
D10*
X130128448Y-81782409D02*
X129128448Y-81782409D01*
X129128448Y-81782409D02*
X129128448Y-81544314D01*
X129128448Y-81544314D02*
X129176067Y-81401457D01*
X129176067Y-81401457D02*
X129271305Y-81306219D01*
X129271305Y-81306219D02*
X129366543Y-81258600D01*
X129366543Y-81258600D02*
X129557019Y-81210981D01*
X129557019Y-81210981D02*
X129699876Y-81210981D01*
X129699876Y-81210981D02*
X129890352Y-81258600D01*
X129890352Y-81258600D02*
X129985590Y-81306219D01*
X129985590Y-81306219D02*
X130080829Y-81401457D01*
X130080829Y-81401457D02*
X130128448Y-81544314D01*
X130128448Y-81544314D02*
X130128448Y-81782409D01*
X129461781Y-80353838D02*
X130128448Y-80353838D01*
X129080829Y-80591933D02*
X129795114Y-80830028D01*
X129795114Y-80830028D02*
X129795114Y-80210981D01*
X132169104Y-78212409D02*
X132169104Y-77736219D01*
X132454819Y-78307647D02*
X131454819Y-77974314D01*
X131454819Y-77974314D02*
X132454819Y-77640981D01*
X110513448Y-81488094D02*
X109513448Y-81488094D01*
X109513448Y-81488094D02*
X109513448Y-81249999D01*
X109513448Y-81249999D02*
X109561067Y-81107142D01*
X109561067Y-81107142D02*
X109656305Y-81011904D01*
X109656305Y-81011904D02*
X109751543Y-80964285D01*
X109751543Y-80964285D02*
X109942019Y-80916666D01*
X109942019Y-80916666D02*
X110084876Y-80916666D01*
X110084876Y-80916666D02*
X110275352Y-80964285D01*
X110275352Y-80964285D02*
X110370590Y-81011904D01*
X110370590Y-81011904D02*
X110465829Y-81107142D01*
X110465829Y-81107142D02*
X110513448Y-81249999D01*
X110513448Y-81249999D02*
X110513448Y-81488094D01*
X110513448Y-79964285D02*
X110513448Y-80535713D01*
X110513448Y-80249999D02*
X109513448Y-80249999D01*
X109513448Y-80249999D02*
X109656305Y-80345237D01*
X109656305Y-80345237D02*
X109751543Y-80440475D01*
X109751543Y-80440475D02*
X109799162Y-80535713D01*
X112554104Y-77918094D02*
X112554104Y-77441904D01*
X112839819Y-78013332D02*
X111839819Y-77679999D01*
X111839819Y-77679999D02*
X112839819Y-77346666D01*
X149313448Y-99462409D02*
X148313448Y-99462409D01*
X148313448Y-99462409D02*
X148313448Y-99224314D01*
X148313448Y-99224314D02*
X148361067Y-99081457D01*
X148361067Y-99081457D02*
X148456305Y-98986219D01*
X148456305Y-98986219D02*
X148551543Y-98938600D01*
X148551543Y-98938600D02*
X148742019Y-98890981D01*
X148742019Y-98890981D02*
X148884876Y-98890981D01*
X148884876Y-98890981D02*
X149075352Y-98938600D01*
X149075352Y-98938600D02*
X149170590Y-98986219D01*
X149170590Y-98986219D02*
X149265829Y-99081457D01*
X149265829Y-99081457D02*
X149313448Y-99224314D01*
X149313448Y-99224314D02*
X149313448Y-99462409D01*
X148742019Y-98319552D02*
X148694400Y-98414790D01*
X148694400Y-98414790D02*
X148646781Y-98462409D01*
X148646781Y-98462409D02*
X148551543Y-98510028D01*
X148551543Y-98510028D02*
X148503924Y-98510028D01*
X148503924Y-98510028D02*
X148408686Y-98462409D01*
X148408686Y-98462409D02*
X148361067Y-98414790D01*
X148361067Y-98414790D02*
X148313448Y-98319552D01*
X148313448Y-98319552D02*
X148313448Y-98129076D01*
X148313448Y-98129076D02*
X148361067Y-98033838D01*
X148361067Y-98033838D02*
X148408686Y-97986219D01*
X148408686Y-97986219D02*
X148503924Y-97938600D01*
X148503924Y-97938600D02*
X148551543Y-97938600D01*
X148551543Y-97938600D02*
X148646781Y-97986219D01*
X148646781Y-97986219D02*
X148694400Y-98033838D01*
X148694400Y-98033838D02*
X148742019Y-98129076D01*
X148742019Y-98129076D02*
X148742019Y-98319552D01*
X148742019Y-98319552D02*
X148789638Y-98414790D01*
X148789638Y-98414790D02*
X148837257Y-98462409D01*
X148837257Y-98462409D02*
X148932495Y-98510028D01*
X148932495Y-98510028D02*
X149122971Y-98510028D01*
X149122971Y-98510028D02*
X149218209Y-98462409D01*
X149218209Y-98462409D02*
X149265829Y-98414790D01*
X149265829Y-98414790D02*
X149313448Y-98319552D01*
X149313448Y-98319552D02*
X149313448Y-98129076D01*
X149313448Y-98129076D02*
X149265829Y-98033838D01*
X149265829Y-98033838D02*
X149218209Y-97986219D01*
X149218209Y-97986219D02*
X149122971Y-97938600D01*
X149122971Y-97938600D02*
X148932495Y-97938600D01*
X148932495Y-97938600D02*
X148837257Y-97986219D01*
X148837257Y-97986219D02*
X148789638Y-98033838D01*
X148789638Y-98033838D02*
X148742019Y-98129076D01*
X151354104Y-95892409D02*
X151354104Y-95416219D01*
X151639819Y-95987647D02*
X150639819Y-95654314D01*
X150639819Y-95654314D02*
X151639819Y-95320981D01*
X149263448Y-118722409D02*
X148263448Y-118722409D01*
X148263448Y-118722409D02*
X148263448Y-118484314D01*
X148263448Y-118484314D02*
X148311067Y-118341457D01*
X148311067Y-118341457D02*
X148406305Y-118246219D01*
X148406305Y-118246219D02*
X148501543Y-118198600D01*
X148501543Y-118198600D02*
X148692019Y-118150981D01*
X148692019Y-118150981D02*
X148834876Y-118150981D01*
X148834876Y-118150981D02*
X149025352Y-118198600D01*
X149025352Y-118198600D02*
X149120590Y-118246219D01*
X149120590Y-118246219D02*
X149215829Y-118341457D01*
X149215829Y-118341457D02*
X149263448Y-118484314D01*
X149263448Y-118484314D02*
X149263448Y-118722409D01*
X149263448Y-117674790D02*
X149263448Y-117484314D01*
X149263448Y-117484314D02*
X149215829Y-117389076D01*
X149215829Y-117389076D02*
X149168209Y-117341457D01*
X149168209Y-117341457D02*
X149025352Y-117246219D01*
X149025352Y-117246219D02*
X148834876Y-117198600D01*
X148834876Y-117198600D02*
X148453924Y-117198600D01*
X148453924Y-117198600D02*
X148358686Y-117246219D01*
X148358686Y-117246219D02*
X148311067Y-117293838D01*
X148311067Y-117293838D02*
X148263448Y-117389076D01*
X148263448Y-117389076D02*
X148263448Y-117579552D01*
X148263448Y-117579552D02*
X148311067Y-117674790D01*
X148311067Y-117674790D02*
X148358686Y-117722409D01*
X148358686Y-117722409D02*
X148453924Y-117770028D01*
X148453924Y-117770028D02*
X148692019Y-117770028D01*
X148692019Y-117770028D02*
X148787257Y-117722409D01*
X148787257Y-117722409D02*
X148834876Y-117674790D01*
X148834876Y-117674790D02*
X148882495Y-117579552D01*
X148882495Y-117579552D02*
X148882495Y-117389076D01*
X148882495Y-117389076D02*
X148834876Y-117293838D01*
X148834876Y-117293838D02*
X148787257Y-117246219D01*
X148787257Y-117246219D02*
X148692019Y-117198600D01*
X151304104Y-115152409D02*
X151304104Y-114676219D01*
X151589819Y-115247647D02*
X150589819Y-114914314D01*
X150589819Y-114914314D02*
X151589819Y-114580981D01*
X149263448Y-81548094D02*
X148263448Y-81548094D01*
X148263448Y-81548094D02*
X148263448Y-81309999D01*
X148263448Y-81309999D02*
X148311067Y-81167142D01*
X148311067Y-81167142D02*
X148406305Y-81071904D01*
X148406305Y-81071904D02*
X148501543Y-81024285D01*
X148501543Y-81024285D02*
X148692019Y-80976666D01*
X148692019Y-80976666D02*
X148834876Y-80976666D01*
X148834876Y-80976666D02*
X149025352Y-81024285D01*
X149025352Y-81024285D02*
X149120590Y-81071904D01*
X149120590Y-81071904D02*
X149215829Y-81167142D01*
X149215829Y-81167142D02*
X149263448Y-81309999D01*
X149263448Y-81309999D02*
X149263448Y-81548094D01*
X148263448Y-80643332D02*
X148263448Y-79976666D01*
X148263448Y-79976666D02*
X149263448Y-80405237D01*
X151304104Y-77978094D02*
X151304104Y-77501904D01*
X151589819Y-78073332D02*
X150589819Y-77739999D01*
X150589819Y-77739999D02*
X151589819Y-77406666D01*
X140326667Y-91413200D02*
X140469524Y-91460819D01*
X140469524Y-91460819D02*
X140707619Y-91460819D01*
X140707619Y-91460819D02*
X140802857Y-91413200D01*
X140802857Y-91413200D02*
X140850476Y-91365580D01*
X140850476Y-91365580D02*
X140898095Y-91270342D01*
X140898095Y-91270342D02*
X140898095Y-91175104D01*
X140898095Y-91175104D02*
X140850476Y-91079866D01*
X140850476Y-91079866D02*
X140802857Y-91032247D01*
X140802857Y-91032247D02*
X140707619Y-90984628D01*
X140707619Y-90984628D02*
X140517143Y-90937009D01*
X140517143Y-90937009D02*
X140421905Y-90889390D01*
X140421905Y-90889390D02*
X140374286Y-90841771D01*
X140374286Y-90841771D02*
X140326667Y-90746533D01*
X140326667Y-90746533D02*
X140326667Y-90651295D01*
X140326667Y-90651295D02*
X140374286Y-90556057D01*
X140374286Y-90556057D02*
X140421905Y-90508438D01*
X140421905Y-90508438D02*
X140517143Y-90460819D01*
X140517143Y-90460819D02*
X140755238Y-90460819D01*
X140755238Y-90460819D02*
X140898095Y-90508438D01*
X141231429Y-90460819D02*
X141469524Y-91460819D01*
X141469524Y-91460819D02*
X141660000Y-90746533D01*
X141660000Y-90746533D02*
X141850476Y-91460819D01*
X141850476Y-91460819D02*
X142088572Y-90460819D01*
X142612381Y-90889390D02*
X142517143Y-90841771D01*
X142517143Y-90841771D02*
X142469524Y-90794152D01*
X142469524Y-90794152D02*
X142421905Y-90698914D01*
X142421905Y-90698914D02*
X142421905Y-90651295D01*
X142421905Y-90651295D02*
X142469524Y-90556057D01*
X142469524Y-90556057D02*
X142517143Y-90508438D01*
X142517143Y-90508438D02*
X142612381Y-90460819D01*
X142612381Y-90460819D02*
X142802857Y-90460819D01*
X142802857Y-90460819D02*
X142898095Y-90508438D01*
X142898095Y-90508438D02*
X142945714Y-90556057D01*
X142945714Y-90556057D02*
X142993333Y-90651295D01*
X142993333Y-90651295D02*
X142993333Y-90698914D01*
X142993333Y-90698914D02*
X142945714Y-90794152D01*
X142945714Y-90794152D02*
X142898095Y-90841771D01*
X142898095Y-90841771D02*
X142802857Y-90889390D01*
X142802857Y-90889390D02*
X142612381Y-90889390D01*
X142612381Y-90889390D02*
X142517143Y-90937009D01*
X142517143Y-90937009D02*
X142469524Y-90984628D01*
X142469524Y-90984628D02*
X142421905Y-91079866D01*
X142421905Y-91079866D02*
X142421905Y-91270342D01*
X142421905Y-91270342D02*
X142469524Y-91365580D01*
X142469524Y-91365580D02*
X142517143Y-91413200D01*
X142517143Y-91413200D02*
X142612381Y-91460819D01*
X142612381Y-91460819D02*
X142802857Y-91460819D01*
X142802857Y-91460819D02*
X142898095Y-91413200D01*
X142898095Y-91413200D02*
X142945714Y-91365580D01*
X142945714Y-91365580D02*
X142993333Y-91270342D01*
X142993333Y-91270342D02*
X142993333Y-91079866D01*
X142993333Y-91079866D02*
X142945714Y-90984628D01*
X142945714Y-90984628D02*
X142898095Y-90937009D01*
X142898095Y-90937009D02*
X142802857Y-90889390D01*
X101526667Y-72013200D02*
X101669524Y-72060819D01*
X101669524Y-72060819D02*
X101907619Y-72060819D01*
X101907619Y-72060819D02*
X102002857Y-72013200D01*
X102002857Y-72013200D02*
X102050476Y-71965580D01*
X102050476Y-71965580D02*
X102098095Y-71870342D01*
X102098095Y-71870342D02*
X102098095Y-71775104D01*
X102098095Y-71775104D02*
X102050476Y-71679866D01*
X102050476Y-71679866D02*
X102002857Y-71632247D01*
X102002857Y-71632247D02*
X101907619Y-71584628D01*
X101907619Y-71584628D02*
X101717143Y-71537009D01*
X101717143Y-71537009D02*
X101621905Y-71489390D01*
X101621905Y-71489390D02*
X101574286Y-71441771D01*
X101574286Y-71441771D02*
X101526667Y-71346533D01*
X101526667Y-71346533D02*
X101526667Y-71251295D01*
X101526667Y-71251295D02*
X101574286Y-71156057D01*
X101574286Y-71156057D02*
X101621905Y-71108438D01*
X101621905Y-71108438D02*
X101717143Y-71060819D01*
X101717143Y-71060819D02*
X101955238Y-71060819D01*
X101955238Y-71060819D02*
X102098095Y-71108438D01*
X102431429Y-71060819D02*
X102669524Y-72060819D01*
X102669524Y-72060819D02*
X102860000Y-71346533D01*
X102860000Y-71346533D02*
X103050476Y-72060819D01*
X103050476Y-72060819D02*
X103288572Y-71060819D01*
X104193333Y-72060819D02*
X103621905Y-72060819D01*
X103907619Y-72060819D02*
X103907619Y-71060819D01*
X103907619Y-71060819D02*
X103812381Y-71203676D01*
X103812381Y-71203676D02*
X103717143Y-71298914D01*
X103717143Y-71298914D02*
X103621905Y-71346533D01*
X129863448Y-118722409D02*
X128863448Y-118722409D01*
X128863448Y-118722409D02*
X128863448Y-118484314D01*
X128863448Y-118484314D02*
X128911067Y-118341457D01*
X128911067Y-118341457D02*
X129006305Y-118246219D01*
X129006305Y-118246219D02*
X129101543Y-118198600D01*
X129101543Y-118198600D02*
X129292019Y-118150981D01*
X129292019Y-118150981D02*
X129434876Y-118150981D01*
X129434876Y-118150981D02*
X129625352Y-118198600D01*
X129625352Y-118198600D02*
X129720590Y-118246219D01*
X129720590Y-118246219D02*
X129815829Y-118341457D01*
X129815829Y-118341457D02*
X129863448Y-118484314D01*
X129863448Y-118484314D02*
X129863448Y-118722409D01*
X128863448Y-117293838D02*
X128863448Y-117484314D01*
X128863448Y-117484314D02*
X128911067Y-117579552D01*
X128911067Y-117579552D02*
X128958686Y-117627171D01*
X128958686Y-117627171D02*
X129101543Y-117722409D01*
X129101543Y-117722409D02*
X129292019Y-117770028D01*
X129292019Y-117770028D02*
X129672971Y-117770028D01*
X129672971Y-117770028D02*
X129768209Y-117722409D01*
X129768209Y-117722409D02*
X129815829Y-117674790D01*
X129815829Y-117674790D02*
X129863448Y-117579552D01*
X129863448Y-117579552D02*
X129863448Y-117389076D01*
X129863448Y-117389076D02*
X129815829Y-117293838D01*
X129815829Y-117293838D02*
X129768209Y-117246219D01*
X129768209Y-117246219D02*
X129672971Y-117198600D01*
X129672971Y-117198600D02*
X129434876Y-117198600D01*
X129434876Y-117198600D02*
X129339638Y-117246219D01*
X129339638Y-117246219D02*
X129292019Y-117293838D01*
X129292019Y-117293838D02*
X129244400Y-117389076D01*
X129244400Y-117389076D02*
X129244400Y-117579552D01*
X129244400Y-117579552D02*
X129292019Y-117674790D01*
X129292019Y-117674790D02*
X129339638Y-117722409D01*
X129339638Y-117722409D02*
X129434876Y-117770028D01*
X131904104Y-115152409D02*
X131904104Y-114676219D01*
X132189819Y-115247647D02*
X131189819Y-114914314D01*
X131189819Y-114914314D02*
X132189819Y-114580981D01*
X120876667Y-110673200D02*
X121019524Y-110720819D01*
X121019524Y-110720819D02*
X121257619Y-110720819D01*
X121257619Y-110720819D02*
X121352857Y-110673200D01*
X121352857Y-110673200D02*
X121400476Y-110625580D01*
X121400476Y-110625580D02*
X121448095Y-110530342D01*
X121448095Y-110530342D02*
X121448095Y-110435104D01*
X121448095Y-110435104D02*
X121400476Y-110339866D01*
X121400476Y-110339866D02*
X121352857Y-110292247D01*
X121352857Y-110292247D02*
X121257619Y-110244628D01*
X121257619Y-110244628D02*
X121067143Y-110197009D01*
X121067143Y-110197009D02*
X120971905Y-110149390D01*
X120971905Y-110149390D02*
X120924286Y-110101771D01*
X120924286Y-110101771D02*
X120876667Y-110006533D01*
X120876667Y-110006533D02*
X120876667Y-109911295D01*
X120876667Y-109911295D02*
X120924286Y-109816057D01*
X120924286Y-109816057D02*
X120971905Y-109768438D01*
X120971905Y-109768438D02*
X121067143Y-109720819D01*
X121067143Y-109720819D02*
X121305238Y-109720819D01*
X121305238Y-109720819D02*
X121448095Y-109768438D01*
X121781429Y-109720819D02*
X122019524Y-110720819D01*
X122019524Y-110720819D02*
X122210000Y-110006533D01*
X122210000Y-110006533D02*
X122400476Y-110720819D01*
X122400476Y-110720819D02*
X122638572Y-109720819D01*
X123448095Y-109720819D02*
X123257619Y-109720819D01*
X123257619Y-109720819D02*
X123162381Y-109768438D01*
X123162381Y-109768438D02*
X123114762Y-109816057D01*
X123114762Y-109816057D02*
X123019524Y-109958914D01*
X123019524Y-109958914D02*
X122971905Y-110149390D01*
X122971905Y-110149390D02*
X122971905Y-110530342D01*
X122971905Y-110530342D02*
X123019524Y-110625580D01*
X123019524Y-110625580D02*
X123067143Y-110673200D01*
X123067143Y-110673200D02*
X123162381Y-110720819D01*
X123162381Y-110720819D02*
X123352857Y-110720819D01*
X123352857Y-110720819D02*
X123448095Y-110673200D01*
X123448095Y-110673200D02*
X123495714Y-110625580D01*
X123495714Y-110625580D02*
X123543333Y-110530342D01*
X123543333Y-110530342D02*
X123543333Y-110292247D01*
X123543333Y-110292247D02*
X123495714Y-110197009D01*
X123495714Y-110197009D02*
X123448095Y-110149390D01*
X123448095Y-110149390D02*
X123352857Y-110101771D01*
X123352857Y-110101771D02*
X123162381Y-110101771D01*
X123162381Y-110101771D02*
X123067143Y-110149390D01*
X123067143Y-110149390D02*
X123019524Y-110197009D01*
X123019524Y-110197009D02*
X122971905Y-110292247D01*
X140276667Y-72073200D02*
X140419524Y-72120819D01*
X140419524Y-72120819D02*
X140657619Y-72120819D01*
X140657619Y-72120819D02*
X140752857Y-72073200D01*
X140752857Y-72073200D02*
X140800476Y-72025580D01*
X140800476Y-72025580D02*
X140848095Y-71930342D01*
X140848095Y-71930342D02*
X140848095Y-71835104D01*
X140848095Y-71835104D02*
X140800476Y-71739866D01*
X140800476Y-71739866D02*
X140752857Y-71692247D01*
X140752857Y-71692247D02*
X140657619Y-71644628D01*
X140657619Y-71644628D02*
X140467143Y-71597009D01*
X140467143Y-71597009D02*
X140371905Y-71549390D01*
X140371905Y-71549390D02*
X140324286Y-71501771D01*
X140324286Y-71501771D02*
X140276667Y-71406533D01*
X140276667Y-71406533D02*
X140276667Y-71311295D01*
X140276667Y-71311295D02*
X140324286Y-71216057D01*
X140324286Y-71216057D02*
X140371905Y-71168438D01*
X140371905Y-71168438D02*
X140467143Y-71120819D01*
X140467143Y-71120819D02*
X140705238Y-71120819D01*
X140705238Y-71120819D02*
X140848095Y-71168438D01*
X141181429Y-71120819D02*
X141419524Y-72120819D01*
X141419524Y-72120819D02*
X141610000Y-71406533D01*
X141610000Y-71406533D02*
X141800476Y-72120819D01*
X141800476Y-72120819D02*
X142038572Y-71120819D01*
X142324286Y-71120819D02*
X142990952Y-71120819D01*
X142990952Y-71120819D02*
X142562381Y-72120819D01*
X120926667Y-72013200D02*
X121069524Y-72060819D01*
X121069524Y-72060819D02*
X121307619Y-72060819D01*
X121307619Y-72060819D02*
X121402857Y-72013200D01*
X121402857Y-72013200D02*
X121450476Y-71965580D01*
X121450476Y-71965580D02*
X121498095Y-71870342D01*
X121498095Y-71870342D02*
X121498095Y-71775104D01*
X121498095Y-71775104D02*
X121450476Y-71679866D01*
X121450476Y-71679866D02*
X121402857Y-71632247D01*
X121402857Y-71632247D02*
X121307619Y-71584628D01*
X121307619Y-71584628D02*
X121117143Y-71537009D01*
X121117143Y-71537009D02*
X121021905Y-71489390D01*
X121021905Y-71489390D02*
X120974286Y-71441771D01*
X120974286Y-71441771D02*
X120926667Y-71346533D01*
X120926667Y-71346533D02*
X120926667Y-71251295D01*
X120926667Y-71251295D02*
X120974286Y-71156057D01*
X120974286Y-71156057D02*
X121021905Y-71108438D01*
X121021905Y-71108438D02*
X121117143Y-71060819D01*
X121117143Y-71060819D02*
X121355238Y-71060819D01*
X121355238Y-71060819D02*
X121498095Y-71108438D01*
X121831429Y-71060819D02*
X122069524Y-72060819D01*
X122069524Y-72060819D02*
X122260000Y-71346533D01*
X122260000Y-71346533D02*
X122450476Y-72060819D01*
X122450476Y-72060819D02*
X122688572Y-71060819D01*
X123498095Y-71394152D02*
X123498095Y-72060819D01*
X123260000Y-71013200D02*
X123021905Y-71727485D01*
X123021905Y-71727485D02*
X123640952Y-71727485D01*
X140276667Y-110673200D02*
X140419524Y-110720819D01*
X140419524Y-110720819D02*
X140657619Y-110720819D01*
X140657619Y-110720819D02*
X140752857Y-110673200D01*
X140752857Y-110673200D02*
X140800476Y-110625580D01*
X140800476Y-110625580D02*
X140848095Y-110530342D01*
X140848095Y-110530342D02*
X140848095Y-110435104D01*
X140848095Y-110435104D02*
X140800476Y-110339866D01*
X140800476Y-110339866D02*
X140752857Y-110292247D01*
X140752857Y-110292247D02*
X140657619Y-110244628D01*
X140657619Y-110244628D02*
X140467143Y-110197009D01*
X140467143Y-110197009D02*
X140371905Y-110149390D01*
X140371905Y-110149390D02*
X140324286Y-110101771D01*
X140324286Y-110101771D02*
X140276667Y-110006533D01*
X140276667Y-110006533D02*
X140276667Y-109911295D01*
X140276667Y-109911295D02*
X140324286Y-109816057D01*
X140324286Y-109816057D02*
X140371905Y-109768438D01*
X140371905Y-109768438D02*
X140467143Y-109720819D01*
X140467143Y-109720819D02*
X140705238Y-109720819D01*
X140705238Y-109720819D02*
X140848095Y-109768438D01*
X141181429Y-109720819D02*
X141419524Y-110720819D01*
X141419524Y-110720819D02*
X141610000Y-110006533D01*
X141610000Y-110006533D02*
X141800476Y-110720819D01*
X141800476Y-110720819D02*
X142038572Y-109720819D01*
X142467143Y-110720819D02*
X142657619Y-110720819D01*
X142657619Y-110720819D02*
X142752857Y-110673200D01*
X142752857Y-110673200D02*
X142800476Y-110625580D01*
X142800476Y-110625580D02*
X142895714Y-110482723D01*
X142895714Y-110482723D02*
X142943333Y-110292247D01*
X142943333Y-110292247D02*
X142943333Y-109911295D01*
X142943333Y-109911295D02*
X142895714Y-109816057D01*
X142895714Y-109816057D02*
X142848095Y-109768438D01*
X142848095Y-109768438D02*
X142752857Y-109720819D01*
X142752857Y-109720819D02*
X142562381Y-109720819D01*
X142562381Y-109720819D02*
X142467143Y-109768438D01*
X142467143Y-109768438D02*
X142419524Y-109816057D01*
X142419524Y-109816057D02*
X142371905Y-109911295D01*
X142371905Y-109911295D02*
X142371905Y-110149390D01*
X142371905Y-110149390D02*
X142419524Y-110244628D01*
X142419524Y-110244628D02*
X142467143Y-110292247D01*
X142467143Y-110292247D02*
X142562381Y-110339866D01*
X142562381Y-110339866D02*
X142752857Y-110339866D01*
X142752857Y-110339866D02*
X142848095Y-110292247D01*
X142848095Y-110292247D02*
X142895714Y-110244628D01*
X142895714Y-110244628D02*
X142943333Y-110149390D01*
X130328448Y-101182409D02*
X129328448Y-101182409D01*
X129328448Y-101182409D02*
X129328448Y-100944314D01*
X129328448Y-100944314D02*
X129376067Y-100801457D01*
X129376067Y-100801457D02*
X129471305Y-100706219D01*
X129471305Y-100706219D02*
X129566543Y-100658600D01*
X129566543Y-100658600D02*
X129757019Y-100610981D01*
X129757019Y-100610981D02*
X129899876Y-100610981D01*
X129899876Y-100610981D02*
X130090352Y-100658600D01*
X130090352Y-100658600D02*
X130185590Y-100706219D01*
X130185590Y-100706219D02*
X130280829Y-100801457D01*
X130280829Y-100801457D02*
X130328448Y-100944314D01*
X130328448Y-100944314D02*
X130328448Y-101182409D01*
X129328448Y-99706219D02*
X129328448Y-100182409D01*
X129328448Y-100182409D02*
X129804638Y-100230028D01*
X129804638Y-100230028D02*
X129757019Y-100182409D01*
X129757019Y-100182409D02*
X129709400Y-100087171D01*
X129709400Y-100087171D02*
X129709400Y-99849076D01*
X129709400Y-99849076D02*
X129757019Y-99753838D01*
X129757019Y-99753838D02*
X129804638Y-99706219D01*
X129804638Y-99706219D02*
X129899876Y-99658600D01*
X129899876Y-99658600D02*
X130137971Y-99658600D01*
X130137971Y-99658600D02*
X130233209Y-99706219D01*
X130233209Y-99706219D02*
X130280829Y-99753838D01*
X130280829Y-99753838D02*
X130328448Y-99849076D01*
X130328448Y-99849076D02*
X130328448Y-100087171D01*
X130328448Y-100087171D02*
X130280829Y-100182409D01*
X130280829Y-100182409D02*
X130233209Y-100230028D01*
X132369104Y-97612409D02*
X132369104Y-97136219D01*
X132654819Y-97707647D02*
X131654819Y-97374314D01*
X131654819Y-97374314D02*
X132654819Y-97040981D01*
X101526667Y-110613200D02*
X101669524Y-110660819D01*
X101669524Y-110660819D02*
X101907619Y-110660819D01*
X101907619Y-110660819D02*
X102002857Y-110613200D01*
X102002857Y-110613200D02*
X102050476Y-110565580D01*
X102050476Y-110565580D02*
X102098095Y-110470342D01*
X102098095Y-110470342D02*
X102098095Y-110375104D01*
X102098095Y-110375104D02*
X102050476Y-110279866D01*
X102050476Y-110279866D02*
X102002857Y-110232247D01*
X102002857Y-110232247D02*
X101907619Y-110184628D01*
X101907619Y-110184628D02*
X101717143Y-110137009D01*
X101717143Y-110137009D02*
X101621905Y-110089390D01*
X101621905Y-110089390D02*
X101574286Y-110041771D01*
X101574286Y-110041771D02*
X101526667Y-109946533D01*
X101526667Y-109946533D02*
X101526667Y-109851295D01*
X101526667Y-109851295D02*
X101574286Y-109756057D01*
X101574286Y-109756057D02*
X101621905Y-109708438D01*
X101621905Y-109708438D02*
X101717143Y-109660819D01*
X101717143Y-109660819D02*
X101955238Y-109660819D01*
X101955238Y-109660819D02*
X102098095Y-109708438D01*
X102431429Y-109660819D02*
X102669524Y-110660819D01*
X102669524Y-110660819D02*
X102860000Y-109946533D01*
X102860000Y-109946533D02*
X103050476Y-110660819D01*
X103050476Y-110660819D02*
X103288572Y-109660819D01*
X103574286Y-109660819D02*
X104193333Y-109660819D01*
X104193333Y-109660819D02*
X103860000Y-110041771D01*
X103860000Y-110041771D02*
X104002857Y-110041771D01*
X104002857Y-110041771D02*
X104098095Y-110089390D01*
X104098095Y-110089390D02*
X104145714Y-110137009D01*
X104145714Y-110137009D02*
X104193333Y-110232247D01*
X104193333Y-110232247D02*
X104193333Y-110470342D01*
X104193333Y-110470342D02*
X104145714Y-110565580D01*
X104145714Y-110565580D02*
X104098095Y-110613200D01*
X104098095Y-110613200D02*
X104002857Y-110660819D01*
X104002857Y-110660819D02*
X103717143Y-110660819D01*
X103717143Y-110660819D02*
X103621905Y-110613200D01*
X103621905Y-110613200D02*
X103574286Y-110565580D01*
X110528448Y-102182409D02*
X109528448Y-102182409D01*
X109528448Y-102182409D02*
X109528448Y-101944314D01*
X109528448Y-101944314D02*
X109576067Y-101801457D01*
X109576067Y-101801457D02*
X109671305Y-101706219D01*
X109671305Y-101706219D02*
X109766543Y-101658600D01*
X109766543Y-101658600D02*
X109957019Y-101610981D01*
X109957019Y-101610981D02*
X110099876Y-101610981D01*
X110099876Y-101610981D02*
X110290352Y-101658600D01*
X110290352Y-101658600D02*
X110385590Y-101706219D01*
X110385590Y-101706219D02*
X110480829Y-101801457D01*
X110480829Y-101801457D02*
X110528448Y-101944314D01*
X110528448Y-101944314D02*
X110528448Y-102182409D01*
X109623686Y-101230028D02*
X109576067Y-101182409D01*
X109576067Y-101182409D02*
X109528448Y-101087171D01*
X109528448Y-101087171D02*
X109528448Y-100849076D01*
X109528448Y-100849076D02*
X109576067Y-100753838D01*
X109576067Y-100753838D02*
X109623686Y-100706219D01*
X109623686Y-100706219D02*
X109718924Y-100658600D01*
X109718924Y-100658600D02*
X109814162Y-100658600D01*
X109814162Y-100658600D02*
X109957019Y-100706219D01*
X109957019Y-100706219D02*
X110528448Y-101277647D01*
X110528448Y-101277647D02*
X110528448Y-100658600D01*
X112569104Y-98612409D02*
X112569104Y-98136219D01*
X112854819Y-98707647D02*
X111854819Y-98374314D01*
X111854819Y-98374314D02*
X112854819Y-98040981D01*
X120926667Y-91413200D02*
X121069524Y-91460819D01*
X121069524Y-91460819D02*
X121307619Y-91460819D01*
X121307619Y-91460819D02*
X121402857Y-91413200D01*
X121402857Y-91413200D02*
X121450476Y-91365580D01*
X121450476Y-91365580D02*
X121498095Y-91270342D01*
X121498095Y-91270342D02*
X121498095Y-91175104D01*
X121498095Y-91175104D02*
X121450476Y-91079866D01*
X121450476Y-91079866D02*
X121402857Y-91032247D01*
X121402857Y-91032247D02*
X121307619Y-90984628D01*
X121307619Y-90984628D02*
X121117143Y-90937009D01*
X121117143Y-90937009D02*
X121021905Y-90889390D01*
X121021905Y-90889390D02*
X120974286Y-90841771D01*
X120974286Y-90841771D02*
X120926667Y-90746533D01*
X120926667Y-90746533D02*
X120926667Y-90651295D01*
X120926667Y-90651295D02*
X120974286Y-90556057D01*
X120974286Y-90556057D02*
X121021905Y-90508438D01*
X121021905Y-90508438D02*
X121117143Y-90460819D01*
X121117143Y-90460819D02*
X121355238Y-90460819D01*
X121355238Y-90460819D02*
X121498095Y-90508438D01*
X121831429Y-90460819D02*
X122069524Y-91460819D01*
X122069524Y-91460819D02*
X122260000Y-90746533D01*
X122260000Y-90746533D02*
X122450476Y-91460819D01*
X122450476Y-91460819D02*
X122688572Y-90460819D01*
X123545714Y-90460819D02*
X123069524Y-90460819D01*
X123069524Y-90460819D02*
X123021905Y-90937009D01*
X123021905Y-90937009D02*
X123069524Y-90889390D01*
X123069524Y-90889390D02*
X123164762Y-90841771D01*
X123164762Y-90841771D02*
X123402857Y-90841771D01*
X123402857Y-90841771D02*
X123498095Y-90889390D01*
X123498095Y-90889390D02*
X123545714Y-90937009D01*
X123545714Y-90937009D02*
X123593333Y-91032247D01*
X123593333Y-91032247D02*
X123593333Y-91270342D01*
X123593333Y-91270342D02*
X123545714Y-91365580D01*
X123545714Y-91365580D02*
X123498095Y-91413200D01*
X123498095Y-91413200D02*
X123402857Y-91460819D01*
X123402857Y-91460819D02*
X123164762Y-91460819D01*
X123164762Y-91460819D02*
X123069524Y-91413200D01*
X123069524Y-91413200D02*
X123021905Y-91365580D01*
X101526667Y-91413200D02*
X101669524Y-91460819D01*
X101669524Y-91460819D02*
X101907619Y-91460819D01*
X101907619Y-91460819D02*
X102002857Y-91413200D01*
X102002857Y-91413200D02*
X102050476Y-91365580D01*
X102050476Y-91365580D02*
X102098095Y-91270342D01*
X102098095Y-91270342D02*
X102098095Y-91175104D01*
X102098095Y-91175104D02*
X102050476Y-91079866D01*
X102050476Y-91079866D02*
X102002857Y-91032247D01*
X102002857Y-91032247D02*
X101907619Y-90984628D01*
X101907619Y-90984628D02*
X101717143Y-90937009D01*
X101717143Y-90937009D02*
X101621905Y-90889390D01*
X101621905Y-90889390D02*
X101574286Y-90841771D01*
X101574286Y-90841771D02*
X101526667Y-90746533D01*
X101526667Y-90746533D02*
X101526667Y-90651295D01*
X101526667Y-90651295D02*
X101574286Y-90556057D01*
X101574286Y-90556057D02*
X101621905Y-90508438D01*
X101621905Y-90508438D02*
X101717143Y-90460819D01*
X101717143Y-90460819D02*
X101955238Y-90460819D01*
X101955238Y-90460819D02*
X102098095Y-90508438D01*
X102431429Y-90460819D02*
X102669524Y-91460819D01*
X102669524Y-91460819D02*
X102860000Y-90746533D01*
X102860000Y-90746533D02*
X103050476Y-91460819D01*
X103050476Y-91460819D02*
X103288572Y-90460819D01*
X103621905Y-90556057D02*
X103669524Y-90508438D01*
X103669524Y-90508438D02*
X103764762Y-90460819D01*
X103764762Y-90460819D02*
X104002857Y-90460819D01*
X104002857Y-90460819D02*
X104098095Y-90508438D01*
X104098095Y-90508438D02*
X104145714Y-90556057D01*
X104145714Y-90556057D02*
X104193333Y-90651295D01*
X104193333Y-90651295D02*
X104193333Y-90746533D01*
X104193333Y-90746533D02*
X104145714Y-90889390D01*
X104145714Y-90889390D02*
X103574286Y-91460819D01*
X103574286Y-91460819D02*
X104193333Y-91460819D01*
X110513448Y-120382409D02*
X109513448Y-120382409D01*
X109513448Y-120382409D02*
X109513448Y-120144314D01*
X109513448Y-120144314D02*
X109561067Y-120001457D01*
X109561067Y-120001457D02*
X109656305Y-119906219D01*
X109656305Y-119906219D02*
X109751543Y-119858600D01*
X109751543Y-119858600D02*
X109942019Y-119810981D01*
X109942019Y-119810981D02*
X110084876Y-119810981D01*
X110084876Y-119810981D02*
X110275352Y-119858600D01*
X110275352Y-119858600D02*
X110370590Y-119906219D01*
X110370590Y-119906219D02*
X110465829Y-120001457D01*
X110465829Y-120001457D02*
X110513448Y-120144314D01*
X110513448Y-120144314D02*
X110513448Y-120382409D01*
X109513448Y-119477647D02*
X109513448Y-118858600D01*
X109513448Y-118858600D02*
X109894400Y-119191933D01*
X109894400Y-119191933D02*
X109894400Y-119049076D01*
X109894400Y-119049076D02*
X109942019Y-118953838D01*
X109942019Y-118953838D02*
X109989638Y-118906219D01*
X109989638Y-118906219D02*
X110084876Y-118858600D01*
X110084876Y-118858600D02*
X110322971Y-118858600D01*
X110322971Y-118858600D02*
X110418209Y-118906219D01*
X110418209Y-118906219D02*
X110465829Y-118953838D01*
X110465829Y-118953838D02*
X110513448Y-119049076D01*
X110513448Y-119049076D02*
X110513448Y-119334790D01*
X110513448Y-119334790D02*
X110465829Y-119430028D01*
X110465829Y-119430028D02*
X110418209Y-119477647D01*
X112554104Y-116812409D02*
X112554104Y-116336219D01*
X112839819Y-116907647D02*
X111839819Y-116574314D01*
X111839819Y-116574314D02*
X112839819Y-116240981D01*
X159090476Y-112507200D02*
X159233333Y-112554819D01*
X159233333Y-112554819D02*
X159471428Y-112554819D01*
X159471428Y-112554819D02*
X159566666Y-112507200D01*
X159566666Y-112507200D02*
X159614285Y-112459580D01*
X159614285Y-112459580D02*
X159661904Y-112364342D01*
X159661904Y-112364342D02*
X159661904Y-112269104D01*
X159661904Y-112269104D02*
X159614285Y-112173866D01*
X159614285Y-112173866D02*
X159566666Y-112126247D01*
X159566666Y-112126247D02*
X159471428Y-112078628D01*
X159471428Y-112078628D02*
X159280952Y-112031009D01*
X159280952Y-112031009D02*
X159185714Y-111983390D01*
X159185714Y-111983390D02*
X159138095Y-111935771D01*
X159138095Y-111935771D02*
X159090476Y-111840533D01*
X159090476Y-111840533D02*
X159090476Y-111745295D01*
X159090476Y-111745295D02*
X159138095Y-111650057D01*
X159138095Y-111650057D02*
X159185714Y-111602438D01*
X159185714Y-111602438D02*
X159280952Y-111554819D01*
X159280952Y-111554819D02*
X159519047Y-111554819D01*
X159519047Y-111554819D02*
X159661904Y-111602438D01*
X159995238Y-111554819D02*
X160233333Y-112554819D01*
X160233333Y-112554819D02*
X160423809Y-111840533D01*
X160423809Y-111840533D02*
X160614285Y-112554819D01*
X160614285Y-112554819D02*
X160852381Y-111554819D01*
X161757142Y-112554819D02*
X161185714Y-112554819D01*
X161471428Y-112554819D02*
X161471428Y-111554819D01*
X161471428Y-111554819D02*
X161376190Y-111697676D01*
X161376190Y-111697676D02*
X161280952Y-111792914D01*
X161280952Y-111792914D02*
X161185714Y-111840533D01*
X162376190Y-111554819D02*
X162471428Y-111554819D01*
X162471428Y-111554819D02*
X162566666Y-111602438D01*
X162566666Y-111602438D02*
X162614285Y-111650057D01*
X162614285Y-111650057D02*
X162661904Y-111745295D01*
X162661904Y-111745295D02*
X162709523Y-111935771D01*
X162709523Y-111935771D02*
X162709523Y-112173866D01*
X162709523Y-112173866D02*
X162661904Y-112364342D01*
X162661904Y-112364342D02*
X162614285Y-112459580D01*
X162614285Y-112459580D02*
X162566666Y-112507200D01*
X162566666Y-112507200D02*
X162471428Y-112554819D01*
X162471428Y-112554819D02*
X162376190Y-112554819D01*
X162376190Y-112554819D02*
X162280952Y-112507200D01*
X162280952Y-112507200D02*
X162233333Y-112459580D01*
X162233333Y-112459580D02*
X162185714Y-112364342D01*
X162185714Y-112364342D02*
X162138095Y-112173866D01*
X162138095Y-112173866D02*
X162138095Y-111935771D01*
X162138095Y-111935771D02*
X162185714Y-111745295D01*
X162185714Y-111745295D02*
X162233333Y-111650057D01*
X162233333Y-111650057D02*
X162280952Y-111602438D01*
X162280952Y-111602438D02*
X162376190Y-111554819D01*
D11*
X156216190Y-68221979D02*
X156216190Y-68736026D01*
X156216190Y-68736026D02*
X156246428Y-68796502D01*
X156246428Y-68796502D02*
X156276666Y-68826741D01*
X156276666Y-68826741D02*
X156337142Y-68856979D01*
X156337142Y-68856979D02*
X156458095Y-68856979D01*
X156458095Y-68856979D02*
X156518571Y-68826741D01*
X156518571Y-68826741D02*
X156548809Y-68796502D01*
X156548809Y-68796502D02*
X156579047Y-68736026D01*
X156579047Y-68736026D02*
X156579047Y-68221979D01*
X157214047Y-68856979D02*
X156851190Y-68856979D01*
X157032618Y-68856979D02*
X157032618Y-68221979D01*
X157032618Y-68221979D02*
X156972142Y-68312693D01*
X156972142Y-68312693D02*
X156911666Y-68373169D01*
X156911666Y-68373169D02*
X156851190Y-68403407D01*
D12*
%TO.C,D4*%
X132000000Y-80987944D02*
X132000000Y-80874315D01*
X133326371Y-82314315D02*
G75*
G02*
X130673629Y-82314315I-1326371J0D01*
G01*
X130673629Y-82314315D02*
G75*
G02*
X133326371Y-82314315I1326371J0D01*
G01*
%TO.C,D1*%
X112385000Y-80693629D02*
X112385000Y-80580000D01*
X113711371Y-82020000D02*
G75*
G02*
X111058629Y-82020000I-1326371J0D01*
G01*
X111058629Y-82020000D02*
G75*
G02*
X113711371Y-82020000I1326371J0D01*
G01*
%TO.C,D8*%
X151185000Y-98667944D02*
X151185000Y-98554315D01*
X152511371Y-99994315D02*
G75*
G02*
X149858629Y-99994315I-1326371J0D01*
G01*
X149858629Y-99994315D02*
G75*
G02*
X152511371Y-99994315I1326371J0D01*
G01*
%TO.C,D9*%
X151135000Y-117927944D02*
X151135000Y-117814315D01*
X152461371Y-119254315D02*
G75*
G02*
X149808629Y-119254315I-1326371J0D01*
G01*
X149808629Y-119254315D02*
G75*
G02*
X152461371Y-119254315I1326371J0D01*
G01*
%TO.C,D7*%
X151135000Y-80753629D02*
X151135000Y-80640000D01*
X152461371Y-82080000D02*
G75*
G02*
X149808629Y-82080000I-1326371J0D01*
G01*
X149808629Y-82080000D02*
G75*
G02*
X152461371Y-82080000I1326371J0D01*
G01*
%TO.C,SW8*%
X134675000Y-91895000D02*
X148645000Y-91895000D01*
X134675000Y-105865000D02*
X134675000Y-91895000D01*
X148645000Y-91895000D02*
X148645000Y-105865000D01*
X148645000Y-105865000D02*
X134675000Y-105865000D01*
%TO.C,SW1*%
X95875000Y-72495000D02*
X109845000Y-72495000D01*
X95875000Y-86465000D02*
X95875000Y-72495000D01*
X109845000Y-72495000D02*
X109845000Y-86465000D01*
X109845000Y-86465000D02*
X95875000Y-86465000D01*
%TO.C,D6*%
X131735000Y-117927944D02*
X131735000Y-117814315D01*
X133061371Y-119254315D02*
G75*
G02*
X130408629Y-119254315I-1326371J0D01*
G01*
X130408629Y-119254315D02*
G75*
G02*
X133061371Y-119254315I1326371J0D01*
G01*
%TO.C,SW6*%
X115225000Y-111155000D02*
X129195000Y-111155000D01*
X115225000Y-125125000D02*
X115225000Y-111155000D01*
X129195000Y-111155000D02*
X129195000Y-125125000D01*
X129195000Y-125125000D02*
X115225000Y-125125000D01*
%TO.C,SW7*%
X134625000Y-72555000D02*
X148595000Y-72555000D01*
X134625000Y-86525000D02*
X134625000Y-72555000D01*
X148595000Y-72555000D02*
X148595000Y-86525000D01*
X148595000Y-86525000D02*
X134625000Y-86525000D01*
%TO.C,SW4*%
X115275000Y-72495000D02*
X129245000Y-72495000D01*
X115275000Y-86465000D02*
X115275000Y-72495000D01*
X129245000Y-72495000D02*
X129245000Y-86465000D01*
X129245000Y-86465000D02*
X115275000Y-86465000D01*
%TO.C,SW9*%
X134625000Y-111155000D02*
X148595000Y-111155000D01*
X134625000Y-125125000D02*
X134625000Y-111155000D01*
X148595000Y-111155000D02*
X148595000Y-125125000D01*
X148595000Y-125125000D02*
X134625000Y-125125000D01*
%TO.C,D5*%
X132200000Y-100387944D02*
X132200000Y-100274315D01*
X133526371Y-101714315D02*
G75*
G02*
X130873629Y-101714315I-1326371J0D01*
G01*
X130873629Y-101714315D02*
G75*
G02*
X133526371Y-101714315I1326371J0D01*
G01*
%TO.C,SW3*%
X95875000Y-111095000D02*
X109845000Y-111095000D01*
X95875000Y-125065000D02*
X95875000Y-111095000D01*
X109845000Y-111095000D02*
X109845000Y-125065000D01*
X109845000Y-125065000D02*
X95875000Y-125065000D01*
%TO.C,D2*%
X112400000Y-101387944D02*
X112400000Y-101274315D01*
X113726371Y-102714315D02*
G75*
G02*
X111073629Y-102714315I-1326371J0D01*
G01*
X111073629Y-102714315D02*
G75*
G02*
X113726371Y-102714315I1326371J0D01*
G01*
%TO.C,SW5*%
X115275000Y-91895000D02*
X129245000Y-91895000D01*
X115275000Y-105865000D02*
X115275000Y-91895000D01*
X129245000Y-91895000D02*
X129245000Y-105865000D01*
X129245000Y-105865000D02*
X115275000Y-105865000D01*
%TO.C,SW2*%
X95875000Y-91895000D02*
X109845000Y-91895000D01*
X95875000Y-105865000D02*
X95875000Y-91895000D01*
X109845000Y-91895000D02*
X109845000Y-105865000D01*
X109845000Y-105865000D02*
X95875000Y-105865000D01*
%TO.C,D3*%
X112385000Y-119587944D02*
X112385000Y-119474315D01*
X113711371Y-120914315D02*
G75*
G02*
X111058629Y-120914315I-1326371J0D01*
G01*
X111058629Y-120914315D02*
G75*
G02*
X113711371Y-120914315I1326371J0D01*
G01*
%TO.C,SW10*%
X157800000Y-115200000D02*
X158400000Y-115200000D01*
X158100000Y-115500000D02*
X157800000Y-115200000D01*
X158400000Y-115200000D02*
X158100000Y-115500000D01*
X159500000Y-113500000D02*
X159500000Y-125200000D01*
X163600000Y-113500000D02*
X159500000Y-113500000D01*
X163600000Y-125200000D02*
X159500000Y-125200000D01*
X165100000Y-119300000D02*
X166100000Y-119300000D01*
X165600000Y-118800000D02*
X165600000Y-119800000D01*
X167600000Y-113400000D02*
X171700000Y-113400000D01*
X171700000Y-113400000D02*
X171700000Y-116000000D01*
X171700000Y-118000000D02*
X171700000Y-120600000D01*
X171700000Y-122600000D02*
X171700000Y-125200000D01*
X171700000Y-125200000D02*
X167600000Y-125200000D01*
X168600000Y-119300000D02*
G75*
G02*
X162600000Y-119300000I-3000000J0D01*
G01*
X162600000Y-119300000D02*
G75*
G02*
X168600000Y-119300000I3000000J0D01*
G01*
D13*
%TO.C,U1*%
X156310000Y-89077500D02*
X156310000Y-71932500D01*
X158215000Y-90982500D02*
X172185000Y-90982500D01*
X160705000Y-70027500D02*
X160708728Y-69117228D01*
X161208728Y-68617500D02*
X169204000Y-68617500D01*
X169704000Y-69117500D02*
X169704000Y-70027500D01*
D14*
X172185000Y-70027500D02*
X158215000Y-70027500D01*
D13*
X172185000Y-70027500D02*
X158215000Y-70027500D01*
X174090000Y-89077500D02*
X174090000Y-71932500D01*
X156310000Y-71932500D02*
G75*
G02*
X158215000Y-70027500I1905001J-1D01*
G01*
X158215000Y-90982500D02*
G75*
G02*
X156310000Y-89077500I1J1905001D01*
G01*
X160708728Y-69117228D02*
G75*
G02*
X161208728Y-68617501I500018J-291D01*
G01*
X169204000Y-68617500D02*
G75*
G02*
X169704000Y-69117500I0J-500000D01*
G01*
X172185000Y-70027500D02*
G75*
G02*
X174090000Y-71932500I0J-1905000D01*
G01*
X174090000Y-89077500D02*
G75*
G02*
X172185000Y-90982500I-1905000J0D01*
G01*
D15*
X156502000Y-70268500D02*
G75*
G02*
X155998000Y-70268500I-252000J0D01*
G01*
X155998000Y-70268500D02*
G75*
G02*
X156502000Y-70268500I252000J0D01*
G01*
X157645000Y-71148500D02*
G75*
G02*
X157141000Y-71148500I-252000J0D01*
G01*
X157141000Y-71148500D02*
G75*
G02*
X157645000Y-71148500I252000J0D01*
G01*
%TD*%
M02*
