M48
; DRILL file {KiCad 9.0.2} date 2025-06-24T13:56:54-0700
; FORMAT={-:-/ absolute / metric / decimal}
; #@! TF.CreationDate,2025-06-24T13:56:54-07:00
; #@! TF.GenerationSoftware,Kicad,Pcbnew,9.0.2
; #@! TF.FileFunction,NonPlated,1,2,NPTH
FMAT,2
METRIC
; #@! TA.AperFunction,NonPlated,NPTH,ComponentDrill
T1C1.700
; #@! TA.AperFunction,NonPlated,NPTH,ComponentDrill
T2C4.000
%
G90
G05
T1
X97.78Y-79.48
X97.78Y-98.88
X97.78Y-118.08
X107.94Y-79.48
X107.94Y-98.88
X107.94Y-118.08
X117.13Y-118.14
X117.18Y-79.48
X117.18Y-98.88
X127.29Y-118.14
X127.34Y-79.48
X127.34Y-98.88
X136.53Y-79.54
X136.53Y-118.14
X136.58Y-98.88
X146.69Y-79.54
X146.69Y-118.14
X146.74Y-98.88
T2
X102.86Y-79.48
X102.86Y-98.88
X102.86Y-118.08
X122.21Y-118.14
X122.26Y-79.48
X122.26Y-98.88
X141.61Y-79.54
X141.61Y-118.14
X141.66Y-98.88
M30
