%TF.GenerationSoftware,KiCad,Pcbnew,9.0.2*%
%TF.CreationDate,2025-06-24T13:56:58-07:00*%
%TF.ProjectId,meghanaHackpad,6d656768-616e-4614-9861-636b7061642e,rev?*%
%TF.SameCoordinates,Original*%
%TF.FileFunction,Copper,L1,Top*%
%TF.FilePolarity,Positive*%
%FSLAX46Y46*%
G04 Gerber Fmt 4.6, Leading zero omitted, Abs format (unit mm)*
G04 Created by KiCad (PCBNEW 9.0.2) date 2025-06-24 13:56:58*
%MOMM*%
%LPD*%
G01*
G04 APERTURE LIST*
G04 Aperture macros list*
%AMRoundRect*
0 Rectangle with rounded corners*
0 $1 Rounding radius*
0 $2 $3 $4 $5 $6 $7 $8 $9 X,Y pos of 4 corners*
0 Add a 4 corners polygon primitive as box body*
4,1,4,$2,$3,$4,$5,$6,$7,$8,$9,$2,$3,0*
0 Add four circle primitives for the rounded corners*
1,1,$1+$1,$2,$3*
1,1,$1+$1,$4,$5*
1,1,$1+$1,$6,$7*
1,1,$1+$1,$8,$9*
0 Add four rect primitives between the rounded corners*
20,1,$1+$1,$2,$3,$4,$5,0*
20,1,$1+$1,$4,$5,$6,$7,0*
20,1,$1+$1,$6,$7,$8,$9,0*
20,1,$1+$1,$8,$9,$2,$3,0*%
G04 Aperture macros list end*
%TA.AperFunction,ComponentPad*%
%ADD10RoundRect,0.250000X0.550000X-0.550000X0.550000X0.550000X-0.550000X0.550000X-0.550000X-0.550000X0*%
%TD*%
%TA.AperFunction,ComponentPad*%
%ADD11C,1.600000*%
%TD*%
%TA.AperFunction,ComponentPad*%
%ADD12C,2.200000*%
%TD*%
%TA.AperFunction,ComponentPad*%
%ADD13C,1.500000*%
%TD*%
%TA.AperFunction,ComponentPad*%
%ADD14R,2.000000X2.000000*%
%TD*%
%TA.AperFunction,ComponentPad*%
%ADD15C,2.000000*%
%TD*%
%TA.AperFunction,ComponentPad*%
%ADD16C,3.200000*%
%TD*%
%TA.AperFunction,SMDPad,CuDef*%
%ADD17RoundRect,0.152400X1.063600X0.609600X-1.063600X0.609600X-1.063600X-0.609600X1.063600X-0.609600X0*%
%TD*%
%TA.AperFunction,ComponentPad*%
%ADD18C,1.524000*%
%TD*%
%TA.AperFunction,SMDPad,CuDef*%
%ADD19RoundRect,0.152400X-1.063600X-0.609600X1.063600X-0.609600X1.063600X0.609600X-1.063600X0.609600X0*%
%TD*%
%TA.AperFunction,Conductor*%
%ADD20C,0.200000*%
%TD*%
G04 APERTURE END LIST*
D10*
%TO.P,D4,1,K*%
%TO.N,row1*%
X132000000Y-82314315D03*
D11*
%TO.P,D4,2,A*%
%TO.N,Net-(D4-A)*%
X132000000Y-79774315D03*
%TD*%
D10*
%TO.P,D1,1,K*%
%TO.N,row2*%
X112385000Y-82020000D03*
D11*
%TO.P,D1,2,A*%
%TO.N,Net-(D1-A)*%
X112385000Y-79480000D03*
%TD*%
D10*
%TO.P,D8,1,K*%
%TO.N,row0*%
X151185000Y-99994315D03*
D11*
%TO.P,D8,2,A*%
%TO.N,Net-(D8-A)*%
X151185000Y-97454315D03*
%TD*%
D10*
%TO.P,D9,1,K*%
%TO.N,row0*%
X151135000Y-119254315D03*
D11*
%TO.P,D9,2,A*%
%TO.N,Net-(D9-A)*%
X151135000Y-116714315D03*
%TD*%
D10*
%TO.P,D7,1,K*%
%TO.N,row0*%
X151135000Y-82080000D03*
D11*
%TO.P,D7,2,A*%
%TO.N,Net-(D7-A)*%
X151135000Y-79540000D03*
%TD*%
D12*
%TO.P,SW8,1,1*%
%TO.N,Net-(D8-A)*%
X144200000Y-93800000D03*
%TO.P,SW8,2,2*%
%TO.N,col1*%
X137850000Y-96340000D03*
%TD*%
%TO.P,SW1,1,1*%
%TO.N,Net-(D1-A)*%
X105400000Y-74400000D03*
%TO.P,SW1,2,2*%
%TO.N,col0*%
X99050000Y-76940000D03*
%TD*%
D10*
%TO.P,D6,1,K*%
%TO.N,row1*%
X131735000Y-119254315D03*
D11*
%TO.P,D6,2,A*%
%TO.N,Net-(D6-A)*%
X131735000Y-116714315D03*
%TD*%
D12*
%TO.P,SW6,1,1*%
%TO.N,Net-(D6-A)*%
X124750000Y-113060000D03*
%TO.P,SW6,2,2*%
%TO.N,col2*%
X118400000Y-115600000D03*
%TD*%
%TO.P,SW7,1,1*%
%TO.N,Net-(D7-A)*%
X144150000Y-74460000D03*
%TO.P,SW7,2,2*%
%TO.N,col0*%
X137800000Y-77000000D03*
%TD*%
%TO.P,SW4,1,1*%
%TO.N,Net-(D4-A)*%
X124800000Y-74400000D03*
%TO.P,SW4,2,2*%
%TO.N,col0*%
X118450000Y-76940000D03*
%TD*%
%TO.P,SW9,1,1*%
%TO.N,Net-(D9-A)*%
X144150000Y-113060000D03*
%TO.P,SW9,2,2*%
%TO.N,col2*%
X137800000Y-115600000D03*
%TD*%
D10*
%TO.P,D5,1,K*%
%TO.N,row1*%
X132200000Y-101714315D03*
D11*
%TO.P,D5,2,A*%
%TO.N,Net-(D5-A)*%
X132200000Y-99174315D03*
%TD*%
D12*
%TO.P,SW3,1,1*%
%TO.N,Net-(D3-A)*%
X105400000Y-113000000D03*
%TO.P,SW3,2,2*%
%TO.N,col2*%
X99050000Y-115540000D03*
%TD*%
D10*
%TO.P,D2,1,K*%
%TO.N,row2*%
X112400000Y-102714315D03*
D11*
%TO.P,D2,2,A*%
%TO.N,Net-(D2-A)*%
X112400000Y-100174315D03*
%TD*%
D12*
%TO.P,SW5,1,1*%
%TO.N,Net-(D5-A)*%
X124800000Y-93800000D03*
%TO.P,SW5,2,2*%
%TO.N,col1*%
X118450000Y-96340000D03*
%TD*%
%TO.P,SW2,1,1*%
%TO.N,Net-(D2-A)*%
X105400000Y-93800000D03*
%TO.P,SW2,2,2*%
%TO.N,col1*%
X99050000Y-96340000D03*
%TD*%
D10*
%TO.P,D3,1,K*%
%TO.N,row2*%
X112385000Y-120914315D03*
D11*
%TO.P,D3,2,A*%
%TO.N,Net-(D3-A)*%
X112385000Y-118374315D03*
%TD*%
D13*
%TO.P,SW10,*%
%TO.N,*%
X172600000Y-116800000D03*
X172600000Y-121800000D03*
D14*
%TO.P,SW10,A,A*%
%TO.N,Net-(U1-GPIO3{slash}MOSI)*%
X158100000Y-116800000D03*
D15*
%TO.P,SW10,B,B*%
%TO.N,Net-(U1-GPIO4{slash}MISO)*%
X158100000Y-121800000D03*
%TO.P,SW10,C,C*%
%TO.N,GND*%
X158100000Y-119300000D03*
D16*
%TO.P,SW10,MP*%
%TO.N,N/C*%
X165600000Y-113700000D03*
X165600000Y-124900000D03*
%TD*%
D17*
%TO.P,U1,1,GPIO26/ADC0/A0*%
%TO.N,col0*%
X156745000Y-72948500D03*
D18*
X157580000Y-72948500D03*
D17*
%TO.P,U1,2,GPIO27/ADC1/A1*%
%TO.N,col1*%
X156745000Y-75488500D03*
D18*
X157580000Y-75488500D03*
D17*
%TO.P,U1,3,GPIO28/ADC2/A2*%
%TO.N,col2*%
X156745000Y-78028500D03*
D18*
X157580000Y-78028500D03*
D17*
%TO.P,U1,4,GPIO29/ADC3/A3*%
%TO.N,row0*%
X156745000Y-80568500D03*
D18*
X157580000Y-80568500D03*
D17*
%TO.P,U1,5,GPIO6/SDA*%
%TO.N,row1*%
X156745000Y-83108500D03*
D18*
X157580000Y-83108500D03*
D17*
%TO.P,U1,6,GPIO7/SCL*%
%TO.N,row2*%
X156745000Y-85648500D03*
D18*
X157580000Y-85648500D03*
D17*
%TO.P,U1,7,GPIO0/TX*%
%TO.N,unconnected-(U1-GPIO0{slash}TX-Pad7)*%
X156745000Y-88188500D03*
D18*
X157580000Y-88188500D03*
%TO.P,U1,8,GPIO1/RX*%
%TO.N,unconnected-(U1-GPIO1{slash}RX-Pad8)*%
X172820000Y-88188500D03*
D19*
X173655000Y-88188500D03*
D18*
%TO.P,U1,9,GPIO2/SCK*%
%TO.N,unconnected-(U1-GPIO2{slash}SCK-Pad9)*%
X172820000Y-85648500D03*
D19*
X173655000Y-85648500D03*
D18*
%TO.P,U1,10,GPIO4/MISO*%
%TO.N,Net-(U1-GPIO4{slash}MISO)*%
X172820000Y-83108500D03*
D19*
X173655000Y-83108500D03*
D18*
%TO.P,U1,11,GPIO3/MOSI*%
%TO.N,Net-(U1-GPIO3{slash}MOSI)*%
X172820000Y-80568500D03*
D19*
X173655000Y-80568500D03*
D18*
%TO.P,U1,12,3V3*%
%TO.N,unconnected-(U1-3V3-Pad12)*%
X172820000Y-78028500D03*
D19*
X173655000Y-78028500D03*
D18*
%TO.P,U1,13,GND*%
%TO.N,GND*%
X172820000Y-75488500D03*
D19*
X173655000Y-75488500D03*
D18*
%TO.P,U1,14,VBUS*%
%TO.N,unconnected-(U1-VBUS-Pad14)*%
X172820000Y-72948500D03*
D19*
X173655000Y-72948500D03*
%TD*%
D20*
%TO.N,Net-(D1-A)*%
X105400000Y-74400000D02*
X107305000Y-74400000D01*
X107305000Y-74400000D02*
X112385000Y-79480000D01*
%TO.N,row2*%
X113501000Y-119798315D02*
X113501000Y-103815315D01*
X113501000Y-101613315D02*
X113501000Y-83136000D01*
X112385000Y-120914315D02*
X113501000Y-119798315D01*
X113501000Y-103815315D02*
X112400000Y-102714315D01*
X113501000Y-83136000D02*
X112385000Y-82020000D01*
X112400000Y-102714315D02*
X113501000Y-101613315D01*
%TO.N,Net-(D2-A)*%
X112400000Y-100174315D02*
X106025685Y-93800000D01*
X106025685Y-93800000D02*
X105400000Y-93800000D01*
%TO.N,Net-(D3-A)*%
X105400000Y-113000000D02*
X107010685Y-113000000D01*
X107010685Y-113000000D02*
X112385000Y-118374315D01*
%TO.N,row1*%
X131735000Y-119254315D02*
X132836000Y-118153315D01*
X133301000Y-100613315D02*
X133301000Y-83615315D01*
X133301000Y-83615315D02*
X132000000Y-82314315D01*
X132200000Y-101714315D02*
X133301000Y-100613315D01*
X132836000Y-102350315D02*
X132200000Y-101714315D01*
X132836000Y-118153315D02*
X132836000Y-102350315D01*
%TO.N,Net-(D4-A)*%
X130374315Y-79774315D02*
X132000000Y-79774315D01*
X124800000Y-74400000D02*
X125000000Y-74400000D01*
X125000000Y-74400000D02*
X130374315Y-79774315D01*
%TO.N,Net-(D5-A)*%
X130174315Y-99174315D02*
X132200000Y-99174315D01*
X124800000Y-93800000D02*
X130174315Y-99174315D01*
%TO.N,Net-(D6-A)*%
X124750000Y-113060000D02*
X128080685Y-113060000D01*
X128080685Y-113060000D02*
X131735000Y-116714315D01*
%TO.N,Net-(D7-A)*%
X146055000Y-74460000D02*
X151135000Y-79540000D01*
X144150000Y-74460000D02*
X146055000Y-74460000D01*
%TO.N,row0*%
X152286000Y-98893315D02*
X151185000Y-99994315D01*
X152236000Y-101045315D02*
X152236000Y-118153315D01*
X151185000Y-99994315D02*
X152236000Y-101045315D01*
X152236000Y-118153315D02*
X151135000Y-119254315D01*
X152286000Y-83231000D02*
X152286000Y-98893315D01*
X151135000Y-82080000D02*
X152286000Y-83231000D01*
%TO.N,Net-(D8-A)*%
X147530685Y-93800000D02*
X151185000Y-97454315D01*
X144200000Y-93800000D02*
X147530685Y-93800000D01*
%TO.N,Net-(D9-A)*%
X147480685Y-113060000D02*
X151135000Y-116714315D01*
X144150000Y-113060000D02*
X147480685Y-113060000D01*
%TO.N,col0*%
X157580000Y-72948500D02*
X141851500Y-72948500D01*
X141851500Y-72948500D02*
X137800000Y-77000000D01*
%TD*%
M02*
